<?xml version="1.0" encoding="UTF-8" standalone="no"?>
<!-- Created with Inkscape (http://www.inkscape.org/) -->

<svg
   xmlns:dc="http://purl.org/dc/elements/1.1/"
   xmlns:cc="http://creativecommons.org/ns#"
   xmlns:rdf="http://www.w3.org/1999/02/22-rdf-syntax-ns#"
   xmlns:svg="http://www.w3.org/2000/svg"
   xmlns="http://www.w3.org/2000/svg"
   xmlns:sodipodi="http://sodipodi.sourceforge.net/DTD/sodipodi-0.dtd"
   xmlns:inkscape="http://www.inkscape.org/namespaces/inkscape"
   width="640px"
   height="480px"
   id="svg3014"
   version="1.1"
   inkscape:version="0.48.3.1 r9886"
   sodipodi:docname="New document 1">
  <defs
     id="defs3016" />
  <sodipodi:namedview
     id="base"
     pagecolor="#ffffff"
     bordercolor="#666666"
     borderopacity="1.0"
     inkscape:pageopacity="0.0"
     inkscape:pageshadow="2"
     inkscape:zoom="0.77472527"
     inkscape:cx="320"
     inkscape:cy="240"
     inkscape:current-layer="layer1"
     inkscape:document-units="px"
     showgrid="false"
     inkscape:window-width="1366"
     inkscape:window-height="713"
     inkscape:window-x="-3"
     inkscape:window-y="-3"
     inkscape:window-maximized="1" />
  <metadata
     id="metadata3019">
    <rdf:RDF>
      <cc:Work
         rdf:about="">
        <dc:format>image/svg+xml</dc:format>
        <dc:type
           rdf:resource="http://purl.org/dc/dcmitype/StillImage" />
        <dc:title></dc:title>
      </cc:Work>
    </rdf:RDF>
  </metadata>
  <g
     id="layer1"
     inkscape:label="Layer 1"
     inkscape:groupmode="layer">
    <path
       style="fill:none;stroke:#000000;stroke-width:2.9000001;stroke-linecap:butt;stroke-linejoin:miter;stroke-miterlimit:4;stroke-opacity:1;stroke-dasharray:none"
       d="m 507.27746,261.58068 c 0,0 17,9 8,18 -9,9 -28,25 -17,30"
       id="path3946"
       inkscape:connector-curvature="0" />
    <path
       style="fill:none;stroke:#000000;stroke-width:3.4000001;stroke-linecap:butt;stroke-linejoin:miter;stroke-miterlimit:4;stroke-opacity:1;stroke-dasharray:none"
       d="m 453.27746,261.58068 c 0,0 7,9 11,15 4,6 7,9 5,23 -2,14 -9,17 1,28 10,11 20,4 13,25"
       id="path3944"
       inkscape:connector-curvature="0" />
    <path
       style="fill:none;stroke:#000000;stroke-width:4.80000019;stroke-linecap:butt;stroke-linejoin:miter;stroke-miterlimit:4;stroke-opacity:1;stroke-dasharray:none"
       d="m 393.27746,126.58067 c 0,0 -4,19 5,22 9,3 18,-3 23,4 5,7 -15,22 5,25 20,3 29,-4 42,5 13,9 16,15 16,15"
       id="path3940"
       inkscape:connector-curvature="0" />
    <path
       style="fill:none;stroke:#000000;stroke-width:4.98799992;stroke-linecap:butt;stroke-linejoin:miter;stroke-miterlimit:4;stroke-opacity:1;stroke-dasharray:none"
       d="m 417.32158,123.16713 c 0,0 21.36409,-10.04618 29.90973,-2.23248 8.54565,7.81369 7.47744,12.27865 17.09129,16.74362 9.61384,4.46497 13.88666,-1.11624 23.5005,12.27867 9.61384,13.3949 -2.13641,18.97611 13.88666,27.90604 16.02308,8.92994 24.56871,4.46497 29.90974,11.16243 5.34102,6.69745 -1.06821,4.46497 9.61384,14.51114"
       id="path3924"
       inkscape:connector-curvature="0" />
    <path
       style="fill:none;stroke:#000000;stroke-width:1.5;stroke-linecap:butt;stroke-linejoin:miter;stroke-miterlimit:4;stroke-opacity:1;stroke-dasharray:none"
       d="m 105.27746,48.580672 c 0,0 54,4 54,23.999997 0,20 -23,35.000001 -6,40.000001 17,5 36,24 36,32 0,8 -3,36 13,36 16,0 43,-1 33,23 -10,24 -21,30 9,36"
       id="path2997"
       inkscape:connector-curvature="0" />
    <path
       style="fill:none;stroke:#000000;stroke-width:1.52622473px;stroke-linecap:butt;stroke-linejoin:miter;stroke-opacity:1"
       d="m 222.93031,249.92419 c 0,0 28.47398,34.19519 4.49589,41.96683 -23.97809,7.77163 -25.47672,9.32596 -23.97809,40.4125 1.49863,31.08653 22.47946,51.29278 0,57.51009 -22.47946,6.21731 -32.96987,18.65192 -32.96987,26.42356"
       id="path2999"
       inkscape:connector-curvature="0" />
    <path
       style="fill:none;stroke:#000000;stroke-width:5.29699993;stroke-linecap:butt;stroke-linejoin:miter;stroke-miterlimit:4;stroke-opacity:1;stroke-dasharray:none"
       d="m 233.3024,250.60122 c 0,0 41.08815,-1.81395 45.82909,18.13949 4.74094,19.95343 -11.06219,9.97671 7.90157,22.67435 18.96376,12.69765 39.50784,-6.34882 33.18659,13.60462 -6.32126,19.95344 9.48188,42.6278 45.82909,29.02318 36.3472,-13.60462 36.3472,-10.88369 53.73065,-0.90697 17.38345,9.97671 22.12439,23.58133 36.34721,9.06974 14.22282,-14.51159 -11.06219,-23.58133 -11.06219,-23.58133"
       id="path3001"
       inkscape:connector-curvature="0" />
    <path
       style="fill:none;stroke:#000000;stroke-width:3.5999999;stroke-linecap:butt;stroke-linejoin:miter;stroke-miterlimit:4;stroke-opacity:1;stroke-dasharray:none"
       d="m 130.27746,157.58067 c -6,23 -4,37 14,40 18,3 21,-13 34,13 13,26 17,27 30,24 13,-3 21,-3 23,6 2,9.00001 2,9.00001 2,9.00001"
       id="path3003"
       inkscape:connector-curvature="0" />
    <path
       style="fill:none;stroke:#000000;stroke-width:6.53100014;stroke-linecap:butt;stroke-linejoin:miter;stroke-miterlimit:4;stroke-opacity:1;stroke-dasharray:none"
       d="m 227.34282,236.50793 c 11.67128,0 24.17623,1.53361 35.01385,-21.47058 10.83762,-23.0042 -4.16832,-19.93697 11.67128,-29.13865 15.8396,-9.20168 14.17228,7.66806 15.8396,-29.13865 1.66733,-36.80671 5.00198,-105.819291 28.34455,-76.680641"
       id="path3005"
       inkscape:connector-curvature="0" />
    <path
       style="fill:none;stroke:#000000;stroke-width:0.55635446px;stroke-linecap:butt;stroke-linejoin:miter;stroke-opacity:1"
       d="m 233.77504,248.04424 c 0,0 15.87021,4.68093 30.74853,-4.99299 14.87831,-9.67392 -1.98378,-7.17743 17.85398,-9.67392 19.83775,-2.4965 21.82153,-1.24825 36.69985,0.62412 14.87831,1.87237 10.91076,0 21.82153,4.36887 10.91076,4.36887 12.89454,9.67392 28.76474,0.93619 15.87021,-8.73773 5.95133,-7.80155 0,-13.73073 -5.95132,-5.92917 -13.88643,-12.17041 3.96755,-12.17041 17.85399,0 23.80531,5.61712 18.84587,7.48949 -4.95943,1.87237 -7.9351,4.68092 2.97567,4.36887"
       id="path3007"
       inkscape:connector-curvature="0" />
    <path
       style="fill:none;stroke:#000000;stroke-width:2.70000005;stroke-linecap:butt;stroke-linejoin:miter;stroke-miterlimit:4;stroke-opacity:1;stroke-dasharray:none"
       d="m 6.2774578,202.58067 c 0,0 -1,25 31.0000002,19 32,-6 49,3 50,10 1,7 0,23.00001 23.000002,19.00001 23,-4 26,-14.00001 48,-5 22,9 26,20 37,4 11,-16.00001 32,-2 38,0"
       id="path3009"
       inkscape:connector-curvature="0" />
    <path
       style="fill:none;stroke:#000000;stroke-width:1.5;stroke-linecap:butt;stroke-linejoin:miter;stroke-miterlimit:4;stroke-opacity:1;stroke-dasharray:none"
       d="m 237.27746,230.58067 c 10,-61 -1,-58 -7,-72 -6,-14 -6,-16 -4,-30 2,-14 9,-23 16,-28 7,-5.000001 10,-5.000001 14,-14.000001 4,-9 -1,-21 -1,-21"
       id="path3011"
       inkscape:connector-curvature="0" />
    <path
       style="fill:none;stroke:#000000;stroke-width:3;stroke-linecap:butt;stroke-linejoin:miter;stroke-miterlimit:4;stroke-opacity:1;stroke-dasharray:none"
       d="m 315.27746,416.58068 c 0,0 5,-28 -5,-45 -10,-17 -19,-25 -17,-42 2,-17 5,-30 -21,-42 -26,-12 -34,-18 -30,-38"
       id="path3013"
       inkscape:connector-curvature="0" />
    <path
       style="fill:none;stroke:#000000;stroke-width:6.5999999;stroke-linecap:butt;stroke-linejoin:miter;stroke-miterlimit:4;stroke-opacity:1;stroke-dasharray:none"
       d="m 56.277458,350.58068 c 0,0 -11,17 22,0 33.000002,-17 19,-8 26.000002,-27 7,-19 5,-15 18,-18 13,-3 55,10 56,-8 1,-18 -9,-14 12,-31 21,-17 16,-16 33,-19"
       id="path3801"
       inkscape:connector-curvature="0" />
    <path
       style="fill:none;stroke:#000000;stroke-width:4;stroke-linecap:butt;stroke-linejoin:miter;stroke-miterlimit:4;stroke-opacity:1;stroke-dasharray:none"
       d="m 222.27746,251.58068 c 0,0 18,3 -1,12 -19,9 -13,-3 -19,10 -6,13 7,15 -6,19 -13,4 -13,-8 -13,11 0,19 0,41 -15,41 -15,0 -20,7 -20,21 0,14 -16,44 -35,46 -19.000002,2 -39.000002,3 -40.000002,21"
       id="path3803"
       inkscape:connector-curvature="0" />
    <path
       style="fill:none;stroke:#000000;stroke-width:5.0999999;stroke-linecap:butt;stroke-linejoin:miter;stroke-miterlimit:4;stroke-opacity:1;stroke-dasharray:none"
       d="m 243.27746,235.58067 c 37,-10 26,0 40,-24 14,-24 2,-34 27,-44 25,-10 32,5 43,-10 11,-15 -3,-21 32,-30 35,-9 31,4 42,-15 11,-19.000001 2,-22.000001 37,-24.000001 35,-2 59,6 65,-10.999997 6,-17 14,-25 30,-14 16,11 19,14.999997 25,14.999997"
       id="path3805"
       inkscape:connector-curvature="0" />
    <path
       style="fill:none;stroke:#000000;stroke-width:4.5;stroke-linecap:butt;stroke-linejoin:miter;stroke-miterlimit:4;stroke-opacity:1;stroke-dasharray:none"
       d="m 113.27746,148.58067 c 0,0 38,-16 45,0 7,16 -2,21 16,31 18,10 33,-2 40,17 7,19 -5,22 8,34"
       id="path3819"
       inkscape:connector-curvature="0" />
    <path
       sodipodi:type="arc"
       style="fill:#ffffff;fill-opacity:1;stroke:#4169e1;stroke-width:10.82124805;stroke-miterlimit:4;stroke-opacity:1;stroke-dasharray:none;stroke-dashoffset:0"
       id="path3021"
       sodipodi:cx="477"
       sodipodi:cy="101.36218"
       sodipodi:rx="29"
       sodipodi:ry="27"
       d="m 506,101.36218 a 29,27 0 1 1 -58,0 29,27 0 1 1 58,0 z"
       transform="matrix(0.79116214,0,0,1.2518485,-142.40864,105.13612)" />
    <text
       xml:space="preserve"
       style="font-size:40px;font-style:normal;font-weight:normal;line-height:125%;letter-spacing:0px;word-spacing:0px;fill:#4169e1;fill-opacity:1;stroke:none;font-family:Sans"
       x="258.27747"
       y="260.58069"
       id="text3840"
       sodipodi:linespacing="125%"><tspan
         sodipodi:role="line"
         id="tspan3842"
         x="258.27747"
         y="260.58069"
         style="font-size:72px;fill:#4169e1;fill-opacity:1">pen</tspan></text>
    <g
       transform="translate(-20.722542,-21.781514)"
       id="g3926">
      <path
         inkscape:connector-curvature="0"
         id="path3850"
         d="m 531,230.36218 c 0,0 -18,11 -13,17 5,6 11,2 11,13 0,11 -11,8 -8,16 3,8 9,5 9,11"
         style="fill:none;stroke:#ff0000;stroke-width:6.5;stroke-linecap:butt;stroke-linejoin:miter;stroke-miterlimit:4;stroke-opacity:1;stroke-dasharray:none" />
      <path
         inkscape:connector-curvature="0"
         id="path3854"
         d="m 528,231.36218 c 0,0 13,-6 15,3 2,9 -2,10 2,17 4,7 8,8 8,14 0,6 -5,14 1,16 6,2 6,10 6,10"
         style="fill:none;stroke:#ff0100;stroke-width:6.4000001;stroke-linecap:butt;stroke-linejoin:miter;stroke-miterlimit:4;stroke-opacity:1;stroke-dasharray:none" />
      <path
         inkscape:connector-curvature="0"
         id="path3856"
         d="m 559,289.36218 c 0,0 2,-5 -1,-11 -3,-6 2,-15 6,-14 4,1 10,-2 4,-7 -6,-5 -10,-11 -6,-15 4,-4 10,-12 4,-13 -6,-1 -6,-8 -6,-8"
         style="fill:none;stroke:#ff0000;stroke-width:5.69999981;stroke-linecap:butt;stroke-linejoin:miter;stroke-miterlimit:4;stroke-opacity:1;stroke-dasharray:none" />
    </g>
    <g
       transform="translate(-20.722542,-21.781514)"
       id="g3931">
      <path
         inkscape:connector-curvature="0"
         id="path3850-6"
         d="m 475.36955,228.18718 c 0,0 -18,11 -13,17 5,6 11,2 11,13 0,11 -11,8 -8,16 3,8 9,5 9,11"
         style="fill:none;stroke:#ff0000;stroke-width:6.5;stroke-linecap:butt;stroke-linejoin:miter;stroke-miterlimit:4;stroke-opacity:1;stroke-dasharray:none" />
      <path
         inkscape:connector-curvature="0"
         id="path3854-5"
         d="m 472.36955,229.18718 c 0,0 13,-6 15,3 2,9 -2,10 2,17 4,7 8,8 8,14 0,6 -5,14 1,16 6,2 6,10 6,10"
         style="fill:none;stroke:#ff0000;stroke-width:6.4000001;stroke-linecap:butt;stroke-linejoin:miter;stroke-miterlimit:4;stroke-opacity:1;stroke-dasharray:none" />
      <path
         inkscape:connector-curvature="0"
         id="path3856-2"
         d="m 503.36955,287.18718 c 0,0 2,-5 -1,-11 -3,-6 2,-15 6,-14 4,1 10,-2 4,-7 -6,-5 -10,-11 -6,-15 4,-4 10,-12 4,-13 -6,-1 -6,-8 -6,-8"
         style="fill:none;stroke:#ff0000;stroke-width:5.69999981;stroke-linecap:butt;stroke-linejoin:miter;stroke-miterlimit:4;stroke-opacity:1;stroke-dasharray:none" />
    </g>
    <text
       xml:space="preserve"
       style="font-size:72px;font-style:normal;font-weight:normal;line-height:125%;letter-spacing:0px;word-spacing:0px;fill:#ff0000;fill-opacity:1;stroke:none;font-family:Sans"
       x="392.27747"
       y="260.58069"
       id="text3936"
       sodipodi:linespacing="125%"><tspan
         sodipodi:role="line"
         id="tspan3938"
         x="392.27747"
         y="260.58069">A</tspan></text>
    <path
       style="fill:none;stroke:#000000;stroke-width:3;stroke-linecap:butt;stroke-linejoin:miter;stroke-miterlimit:4;stroke-opacity:1;stroke-dasharray:none"
       d="m 515.27746,87.580669 c 0,0 22,-1 25,5 3,6 0,21.000001 7,27.000001 7,6 23,8 31,21 8,13 -1,27 10,40 11,13 31,-6 30,26 -1,32 -20,39.00001 -26,43.00001 -6,4 -24,20 -19,29 5,9 30,22 5,36 -25,14 -72,1 -72,19"
       id="path3942"
       inkscape:connector-curvature="0" />
  </g>
</svg>
